<?xml version="1.0" encoding="iso-8859-1"?>
<!-- Generator: Adobe Illustrator 19.0.0, SVG Export Plug-In . SVG Version: 6.00 Build 0)  -->
<svg version="1.1" id="Capa_1" xmlns="http://www.w3.org/2000/svg" xmlns:xlink="http://www.w3.org/1999/xlink" x="0px" y="0px"
	 viewBox="0 0 512 512" style="enable-background:new 0 0 512 512;" xml:space="preserve">
<g transform="translate(-1)">
	<path style="fill:#3B97D3;" d="M362.938,60.646v-42.99C362.909,7.916,355.022,0.028,345.283,0H133.421
		c-9.739,0.028-17.627,7.916-17.655,17.655v64.088C32.802,142.765-1.573,250.178,30.549,348.029S154.019,512.022,257.007,512h1.148
		c49.402-0.138,97.523-15.725,137.622-44.579v-0.088l25.159-85.451c2.421-6.238,3.694-12.863,3.757-19.555
		c0.003,6.87-1.271,13.681-3.757,20.085l-25.159,85.451c68.027-48.7,105.529-129.509,98.804-212.9
		C487.856,171.571,437.889,97.815,362.938,60.646z"/>
	<path style="fill:#CB8252;" d="M420.935,381.881l-25.159,85.451v0.088c-40.1,28.854-88.221,44.442-137.622,44.579
		c-14.83-43.785-9.004-96.662-4.326-123.586c1.854-10.946,3.531-17.655,3.531-17.655v-97.103c0-14.626,11.857-26.483,26.483-26.483
		c14.626,0,26.483,11.857,26.483,26.483v88.276c0.023,14.479,11.652,26.266,26.13,26.483c1.808,0.003,3.612-0.174,5.385-0.53
		c0.753-0.093,1.494-0.27,2.207-0.53c0.196-0.088,0.405-0.148,0.618-0.177c9.564-2.894,16.651-10.974,18.273-20.833
		c0.253-1.457,0.371-2.935,0.353-4.414V220.69c0,0,53.142,73.534,60.999,134.621C425.394,364.309,424.241,373.44,420.935,381.881z"
		/>
	<path style="fill:#E6E7E8;" d="M212.869,344.276h-17.655H212.869z M177.559,344.276h-17.655c-4.869-0.015-8.813-3.958-8.828-8.828
		V291.31c0.015-4.869,3.958-8.813,8.828-8.828h97.457v-8.828c0-14.626,11.857-26.483,26.483-26.483
		c14.626,0,26.483,11.857,26.483,26.483v88.276c0.023,14.479,11.652,26.266,26.13,26.483c1.808,0.003,3.612-0.174,5.385-0.53
		c0.753-0.093,1.494-0.27,2.207-0.53c0.196-0.088,0.405-0.148,0.618-0.177c9.564-2.894,16.651-10.974,18.273-20.833V17.655
		C362.909,7.916,355.022,0.028,345.283,0H133.421c-9.739,0.028-17.627,7.916-17.655,17.655v353.103
		c0.029,9.739,7.916,17.627,17.655,17.655h120.408c1.854-10.946,3.531-17.655,3.531-17.655v-26.483H177.559z M221.167,135.503
		l-26.483,70.621c-1.303,3.453-4.608,5.738-8.298,5.738s-6.995-2.285-8.298-5.738l-26.483-70.621
		c-1.706-4.583,0.625-9.681,5.208-11.388c4.583-1.706,9.681,0.625,11.388,5.208l18.185,48.552l18.185-48.552
		c1.706-4.583,6.805-6.915,11.388-5.208C220.541,125.822,222.873,130.921,221.167,135.503z M257.007,203.034
		c0,4.875-3.952,8.828-8.828,8.828s-8.828-3.952-8.828-8.828v-70.621c0-4.875,3.952-8.828,8.828-8.828s8.828,3.952,8.828,8.828
		V203.034z M239.352,79.448c-14.626,0-26.483-11.857-26.483-26.483s11.857-26.483,26.483-26.483s26.483,11.857,26.483,26.483
		C265.792,67.574,253.96,79.405,239.352,79.448z M319.859,168.783c-4.927,5.019-11.681,7.823-18.714,7.768h-8.828v26.483
		c0,4.875-3.952,8.828-8.828,8.828s-8.828-3.952-8.828-8.828v-70.621c0.015-4.869,3.958-8.813,8.828-8.828h17.655
		c14.608,0.043,26.44,11.874,26.483,26.483C327.682,157.102,324.879,163.856,319.859,168.783z"/>
	<g>
		<path style="fill:#46B29D;" d="M239.352,26.483c-14.626,0-26.483,11.857-26.483,26.483s11.857,26.483,26.483,26.483
			s26.483-11.857,26.483-26.483C265.792,38.357,253.96,26.525,239.352,26.483z M239.352,61.793c-4.875,0-8.828-3.952-8.828-8.828
			s3.952-8.828,8.828-8.828s8.828,3.952,8.828,8.828C248.165,57.835,244.221,61.779,239.352,61.793z"/>
		<path style="fill:#46B29D;" d="M301.145,123.586H283.49c-4.869,0.015-8.813,3.958-8.828,8.828v35.31
			c0.015,4.869,3.958,8.813,8.828,8.828h17.655c14.617-0.022,26.461-11.866,26.483-26.483
			C327.585,135.461,315.753,123.629,301.145,123.586z M307.412,156.16c-0.006,0.095-0.082,0.17-0.177,0.177
			c-1.581,1.67-3.791,2.599-6.091,2.56h-8.828v-17.655h8.828c4.869,0.015,8.813,3.958,8.828,8.828
			C310.012,152.369,309.083,154.579,307.412,156.16z"/>
	</g>
	<path style="fill:#E6E7E8;" d="M309.972,150.069c0.039,2.3-0.89,4.51-2.56,6.091c-0.006,0.095-0.082,0.17-0.177,0.177
		c-1.581,1.67-3.791,2.599-6.091,2.56h-8.828v-17.655h8.828C306.014,141.256,309.958,145.2,309.972,150.069z"/>
	<g>
		<path style="fill:#46B29D;" d="M221.167,135.503l-26.483,70.621c-1.303,3.453-4.608,5.738-8.298,5.738s-6.995-2.285-8.298-5.738
			l-26.483-70.621c-1.706-4.583,0.625-9.681,5.208-11.388c4.583-1.706,9.681,0.625,11.388,5.208l18.185,48.552l18.185-48.552
			c1.706-4.583,6.805-6.915,11.388-5.208C220.541,125.822,222.873,130.921,221.167,135.503z"/>
		<path style="fill:#46B29D;" d="M257.007,132.414v70.621c0,4.875-3.952,8.828-8.828,8.828s-8.828-3.952-8.828-8.828v-70.621
			c0-4.875,3.952-8.828,8.828-8.828S257.007,127.538,257.007,132.414z"/>
		<path style="fill:#46B29D;" d="M292.317,167.724v35.31c0,4.875-3.952,8.828-8.828,8.828s-8.828-3.952-8.828-8.828v-35.31
			c0-4.875,3.952-8.828,8.828-8.828S292.317,162.849,292.317,167.724z"/>
	</g>
	<path style="fill:#FDD7AD;" d="M177.559,344.276h-17.655c-4.869-0.015-8.813-3.958-8.828-8.828V291.31
		c0.015-4.869,3.958-8.813,8.828-8.828h97.457v61.793h-26.836"/>
	<g>
		<path style="fill:#46B29D;" d="M230.524,308.966v26.483c0,4.875-3.952,8.828-8.828,8.828s-8.828-3.952-8.828-8.828v-26.483
			c0-4.875,3.952-8.828,8.828-8.828S230.524,304.09,230.524,308.966z"/>
		<path style="fill:#46B29D;" d="M195.214,317.793v17.655c0,4.875-3.952,8.828-8.828,8.828s-8.828-3.952-8.828-8.828v-17.655
			c0-4.875,3.952-8.828,8.828-8.828S195.214,312.918,195.214,317.793z"/>
	</g>
</g>
<g>
</g>
<g>
</g>
<g>
</g>
<g>
</g>
<g>
</g>
<g>
</g>
<g>
</g>
<g>
</g>
<g>
</g>
<g>
</g>
<g>
</g>
<g>
</g>
<g>
</g>
<g>
</g>
<g>
</g>
</svg>
