<svg height="470pt" viewBox="0 0 470 470.6" width="470pt" xmlns="http://www.w3.org/2000/svg"><path d="m470.300781 200.800781v69l-49.199219 4.898438c-12.617187-8.667969-26.996093-14.4375-42.101562-16.898438 1.125-7.449219 1.691406-14.96875 1.699219-22.5-.050781-60.714843-37.929688-114.964843-94.90625-135.929687-56.976563-20.96875-120.984375-4.210938-160.378907 41.984375-39.394531 46.195312-45.832031 112.046875-16.128906 165 29.703125 52.949219 89.253906 81.78125 149.214844 72.246093 2.480469 14.695313 8.109375 28.679688 16.5 41l-4.898438 51h-69l-4.902343-51.101562c-22.800781-4.898438-43.699219-14.199219-62.800781-26.5l-39.398438 32.601562-48.699219-48.601562 32.597657-39.398438c-12.667969-19.101562-21.652344-40.402343-26.5-62.800781l-51.097657-5v-69l51.097657-4.902343c4.902343-22.796876 14.203124-43.699219 26.5-62.796876l-32.597657-39.5 48.699219-48.703124 39.398438 32.703124c19.101562-12.667968 40.402343-21.65625 62.800781-26.5l4.902343-51.101562h69l4.898438 51.101562c22.800781 4.898438 43.699219 14.199219 62.800781 26.5l39.5-32.601562 48 48.699219-32.601562 39.402343c12.628906 19.121094 21.613281 40.410157 26.5 62.796876zm0 0" fill="#00acea"/><path d="m258.5 378.601562c-1.007812-5.8125-1.511719-11.703124-1.5-17.601562.070312-57.855469 47.042969-104.695312 104.898438-104.601562 5.730468.011718 11.449218.480468 17.101562 1.402343 15.117188 2.425781 29.5 8.199219 42.101562 16.898438 28.527344 19.460937 45.597657 51.765625 45.597657 86.300781 0 57.800781-47 104.601562-104.898438 104.601562-51.082031.175782-94.789062-36.632812-103.300781-87zm0 0" fill="#00efd1"/><path d="m380.699219 235.300781c-.003907 7.53125-.570313 15.050781-1.699219 22.5-5.652344-.921875-11.371094-1.390625-17.101562-1.402343-14.265626-.03125-28.390626 2.863281-41.5 8.5l-.097657-.199219v-5.800781c.007813-20.988282-17.011719-38.007813-38-38h-10.402343l-27.5 74.601562-4.597657-46.5h-6.199219l-4.601562 47h-.101562l-27.796876-75.101562h-12.800781c-20.992187-.007813-38.011719 17.011718-38 38l.097657 93.800781c-50.898438-36.929688-72.222657-102.441407-52.8125-162.257813 19.40625-59.816406 75.128906-100.328125 138.015624-100.339844 80.097657 0 145.097657 65.097657 145.097657 145.199219zm-109.199219-67.101562v-18.800781c-.023438-18.820313-15.277344-34.074219-34.101562-34.097657h-4.296876c-18.824218.023438-34.078124 15.277344-34.101562 34.097657v18.800781c.023438 18.824219 15.277344 34.078125 34.101562 34.101562h4.296876c9.050781.023438 17.738281-3.5625 24.140624-9.964843 6.398438-6.398438 9.984376-15.085938 9.960938-24.136719zm-27.300781 76.699219 7.199219-21.199219-30.199219-.097657 7.199219 21.296876zm0 0" fill="#384549"/><path d="m320.300781 264.800781.097657.199219c-38.453126 16.464844-63.394532 54.265625-63.398438 96.101562-.011719 5.898438.492188 11.785157 1.5 17.597657-38.027344 6.039062-76.898438-3.238281-108.101562-25.800781l-.097657-93.796876c-.011719-20.992187 17.007813-38.011718 38-38h12.898438l27.800781 75.097657h.101562l-4.101562 41.300781 11.898438 7.898438 11.601562-7.898438-4.101562-41.898438 27.5-74.601562h10.402343c20.988281-.007812 38.007813 17.007812 38 38zm0 0" fill="#fedb41"/><path d="m271.5 149.5v18.800781c-.023438 18.824219-15.277344 34.074219-34.101562 34.097657h-4.296876c-18.824218-.023438-34.078124-15.273438-34.101562-34.097657v-18.800781c.023438-18.824219 15.277344-34.078125 34.101562-34.101562h4.296876c9.046874-.003907 17.722656 3.585937 24.121093 9.984374 6.394531 6.394532 9.984375 15.070313 9.980469 24.117188zm0 0" fill="#fedb41"/><path d="m251.398438 223.699219-7.199219 21.199219h-15.800781l-7.199219-21.296876zm0 0" fill="#00acea"/><path d="m244.398438 295.5 4.101562 41.898438-11.601562 7.800781-12-7.800781 4.101562-41.398438 4.699219-47h6.101562zm0 0" fill="#00acea"/><path d="m361.898438 353.398438c-12.699219 0-23-10.296876-23-23 0-12.699219 10.300781-23 23-23 12.703124 0 23 10.300781 23 23 0 3.867187 3.136718 7 7 7 3.867187 0 7-3.132813 7-7-.019532-17.71875-12.597657-32.941407-30-36.296876v-10.203124c0-3.863282-3.132813-7-7-7-3.863282 0-7 3.136718-7 7v10.203124c-18.722657 3.601563-31.640626 20.847657-29.828126 39.832032 1.8125 18.980468 17.761719 33.472656 36.828126 33.464844 12.703124-.082032 23.070312 10.148437 23.152343 22.851562s-10.148437 23.066406-22.851562 23.148438h-.597657c-12.570312-.199219-22.664062-10.429688-22.703124-23 0-3.863282-3.132813-7-7-7-3.863282 0-7 3.136718-7 7 .023437 17.722656 12.601562 32.945312 30 36.300781v11.5c0 3.867187 3.136718 7 7 7 3.867187 0 7-3.132813 7-7v-11.5c18.726562-3.601563 31.644531-20.851563 29.832031-39.832031-1.816407-18.980469-17.761719-33.472657-36.832031-33.46875zm0 0" fill="#fedb41"/></svg>